<svg width="483" height="8" viewBox="0 0 483 8" fill="none" xmlns="http://www.w3.org/2000/svg">
<path d="M482.67 3.47825C482.658 2.00554 481.455 0.82141 479.982 0.833422C478.509 0.845434 477.325 2.04904 477.337 3.52175C477.349 4.99446 478.553 6.17859 480.026 6.16658C481.498 6.15457 482.682 4.95096 482.67 3.47825ZM480 3.00002L479 3.00817L479.008 4.00814L480.008 3.99998L480 3.00002ZM477 3.02449L475 3.0408L475.008 4.04077L477.008 4.02445L477 3.02449ZM473 3.05711L471 3.07342L471.008 4.07339L473.008 4.05708L473 3.05711ZM469 3.08974L467 3.10605L467.008 4.10602L469.008 4.0897L469 3.08974ZM465 3.12236L463 3.13867L463.009 4.13864L465.008 4.12233L465 3.12236ZM461 3.15499L459.001 3.1713L459.009 4.17127L461.009 4.15495L461 3.15499ZM457.001 3.18761L455.001 3.20393L455.009 4.20389L457.009 4.18758L457.001 3.18761ZM453.001 3.22024L451.001 3.23655L451.009 4.23652L453.009 4.2202L453.001 3.22024ZM449.001 3.25286L447.001 3.26918L447.009 4.26914L449.009 4.25283L449.001 3.25286ZM445.001 3.28549L443.001 3.3018L443.009 4.30177L445.009 4.28546L445.001 3.28549ZM441.001 3.31811L439.001 3.33443L439.009 4.33439L441.009 4.31808L441.001 3.31811ZM437.001 3.35074L435.001 3.36705L435.009 4.36702L437.009 4.35071L437.001 3.35074ZM433.001 3.38336L431.001 3.39968L431.01 4.39964L433.01 4.38333L433.001 3.38336ZM429.002 3.41599L427.002 3.4323L427.01 4.43227L429.01 4.41596L429.002 3.41599ZM425.002 3.44862L423.002 3.46493L423.01 4.46489L425.01 4.44858L425.002 3.44862ZM421.002 3.48124L419.002 3.49755L419.01 4.49752L421.01 4.48121L421.002 3.48124ZM417.002 3.51387L415.002 3.53018L415.01 4.53015L417.01 4.51383L417.002 3.51387ZM413.002 3.54649L411.002 3.5628L411.01 4.56277L413.01 4.54646L413.002 3.54649ZM409.002 3.57912L407.002 3.59543L407.01 4.5954L409.01 4.57908L409.002 3.57912ZM405.002 3.61174L403.002 3.62805L403.011 4.62802L405.01 4.61171L405.002 3.61174ZM401.002 3.64437L399.003 3.66068L399.011 4.66065L401.011 4.64433L401.002 3.64437ZM397.003 3.67699L395.003 3.69331L395.011 4.69327L397.011 4.67696L397.003 3.67699ZM393.003 3.70962L391.003 3.72593L391.011 4.7259L393.011 4.70958L393.003 3.70962ZM389.003 3.74224L387.003 3.75856L387.011 4.75852L389.011 4.74221L389.003 3.74224ZM385.003 3.77487L383.003 3.79118L383.011 4.79115L385.011 4.77484L385.003 3.77487ZM381.003 3.80749L379.003 3.82381L379.011 4.82377L381.011 4.80746L381.003 3.80749ZM377.003 3.84012L375.003 3.85643L375.011 4.8564L377.011 4.84009L377.003 3.84012ZM373.003 3.87274L371.003 3.88906L371.012 4.88902L373.012 4.87271L373.003 3.87274ZM369.004 3.90537L367.004 3.92168L367.012 4.92165L369.012 4.90534L369.004 3.90537ZM365.004 3.938L363.004 3.95431L363.012 4.95427L365.012 4.93796L365.004 3.938ZM361.004 3.97062L359.004 3.98693L359.012 4.9869L361.012 4.97059L361.004 3.97062ZM357.004 4.00325L355.004 4.01956L355.012 5.01953L357.012 5.00321L357.004 4.00325ZM353.004 4.03587L351.004 4.05218L351.012 5.05215L353.012 5.03584L353.004 4.03587ZM349.004 4.0685L347.004 4.08481L347.012 5.08478L349.012 5.06846L349.004 4.0685ZM345.004 4.10112L343.004 4.11743L343.013 5.1174L345.012 5.10109L345.004 4.10112ZM341.004 4.13375L339.005 4.15006L339.013 5.15003L341.013 5.13371L341.004 4.13375ZM337.005 4.16637L335.005 4.18269L335.013 5.18265L337.013 5.16634L337.005 4.16637ZM333.005 4.199L331.005 4.21531L331.013 5.21528L333.013 5.19896L333.005 4.199ZM329.005 4.23162L327.005 4.24794L327.013 5.2479L329.013 5.23159L329.005 4.23162ZM325.005 4.26425L323.005 4.28056L323.013 5.28053L325.013 5.26422L325.005 4.26425ZM321.005 4.29687L319.005 4.31319L319.013 5.31315L321.013 5.29684L321.005 4.29687ZM317.005 4.3295L315.005 4.34581L315.013 5.34578L317.013 5.32947L317.005 4.3295ZM313.005 4.36212L311.005 4.37844L311.014 5.3784L313.014 5.36209L313.005 4.36212ZM309.006 4.39475L307.006 4.41106L307.014 5.41103L309.014 5.39472L309.006 4.39475ZM305.006 4.42738L303.006 4.44369L303.014 5.44365L305.014 5.42734L305.006 4.42738ZM301.006 4.46L299.006 4.47631L299.014 5.47628L301.014 5.45997L301.006 4.46ZM297.006 4.49263L295.006 4.50894L295.014 5.50891L297.014 5.49259L297.006 4.49263ZM293.006 4.52525L291.006 4.54156L291.014 5.54153L293.014 5.52522L293.006 4.52525ZM289.006 4.55788L287.006 4.57419L287.014 5.57416L289.014 5.55784L289.006 4.55788ZM285.006 4.5905L283.006 4.60681L283.015 5.60678L285.014 5.59047L285.006 4.5905ZM281.006 4.62313L279.007 4.63944L279.015 5.63941L281.015 5.62309L281.006 4.62313ZM277.007 4.65575L275.007 4.67207L275.015 5.67203L277.015 5.65572L277.007 4.65575ZM273.007 4.68838L271.007 4.70469L271.015 5.70466L273.015 5.68835L273.007 4.68838ZM269.007 4.721L267.007 4.73732L267.015 5.73728L269.015 5.72097L269.007 4.721ZM265.007 4.75363L263.007 4.76994L263.015 5.76991L265.015 5.7536L265.007 4.75363ZM261.007 4.78625L259.007 4.80257L259.015 5.80253L261.015 5.78622L261.007 4.78625ZM257.007 4.81888L255.007 4.83519L255.015 5.83516L257.015 5.81885L257.007 4.81888ZM253.007 4.8515L251.007 4.86782L251.016 5.86778L253.016 5.85147L253.007 4.8515ZM249.008 4.88413L247.008 4.90044L247.016 5.90041L249.016 5.8841L249.008 4.88413ZM245.008 4.91676L243.008 4.93307L243.016 5.93304L245.016 5.91672L245.008 4.91676ZM241.008 4.94938L239.008 4.96569L239.016 5.96566L241.016 5.94935L241.008 4.94938ZM237.008 4.98201L235.008 4.99832L235.016 5.99829L237.016 5.98197L237.008 4.98201ZM233.008 5.01463L231.008 5.03094L231.016 6.03091L233.016 6.0146L233.008 5.01463ZM229.008 5.04726L227.008 5.06357L227.016 6.06354L229.016 6.04722L229.008 5.04726ZM225.008 5.07988L223.008 5.09619L223.017 6.09616L225.016 6.07985L225.008 5.07988ZM221.008 5.11251L219.009 5.12882L219.017 6.12879L221.017 6.11247L221.008 5.11251ZM217.009 5.14513L215.009 5.16145L215.017 6.16141L217.017 6.1451L217.009 5.14513ZM213.009 5.17776L211.009 5.19407L211.017 6.19404L213.017 6.17773L213.009 5.17776ZM209.009 5.21038L207.009 5.2267L207.017 6.22666L209.017 6.21035L209.009 5.21038ZM205.009 5.24301L203.009 5.25932L203.017 6.25929L205.017 6.24298L205.009 5.24301ZM201.009 5.27563L199.009 5.29195L199.017 6.29191L201.017 6.2756L201.009 5.27563ZM197.009 5.30826L195.009 5.32457L195.017 6.32454L197.017 6.30823L197.009 5.30826ZM193.009 5.34089L191.009 5.3572L191.018 6.35716L193.018 6.34085L193.009 5.34089ZM189.01 5.37351L187.01 5.38982L187.018 6.38979L189.018 6.37348L189.01 5.37351ZM185.01 5.40614L183.01 5.42245L183.018 6.42242L185.018 6.4061L185.01 5.40614ZM181.01 5.43876L179.01 5.45507L179.018 6.45504L181.018 6.43873L181.01 5.43876ZM177.01 5.47139L175.01 5.4877L175.018 6.48767L177.018 6.47135L177.01 5.47139ZM173.01 5.50401L171.01 5.52032L171.018 6.52029L173.018 6.50398L173.01 5.50401ZM169.01 5.53664L167.01 5.55295L167.018 6.55292L169.018 6.5366L169.01 5.53664ZM165.01 5.56926L163.01 5.58558L163.019 6.58554L165.018 6.56923L165.01 5.56926ZM161.01 5.60189L159.011 5.6182L159.019 6.61817L161.019 6.60185L161.01 5.60189ZM157.011 5.63451L155.011 5.65083L155.019 6.65079L157.019 6.63448L157.011 5.63451ZM153.011 5.66714L151.011 5.68345L151.019 6.68342L153.019 6.66711L153.011 5.66714ZM149.011 5.69976L147.011 5.71608L147.019 6.71604L149.019 6.69973L149.011 5.69976ZM145.011 5.73239L143.011 5.7487L143.019 6.74867L145.019 6.73236L145.011 5.73239ZM141.011 5.76501L139.011 5.78133L139.019 6.78129L141.019 6.76498L141.011 5.76501ZM137.011 5.79764L135.011 5.81395L135.019 6.81392L137.019 6.79761L137.011 5.79764ZM133.011 5.83027L131.011 5.84658L131.02 6.84654L133.02 6.83023L133.011 5.83027ZM129.012 5.86289L127.012 5.8792L127.02 6.87917L129.02 6.86286L129.012 5.86289ZM125.012 5.89552L123.012 5.91183L123.02 6.9118L125.02 6.89548L125.012 5.89552ZM121.012 5.92814L119.012 5.94445L119.02 6.94442L121.02 6.92811L121.012 5.92814ZM117.012 5.96077L115.012 5.97708L115.02 6.97705L117.02 6.96073L117.012 5.96077ZM113.012 5.99339L111.012 6.0097L111.02 7.00967L113.02 6.99336L113.012 5.99339ZM109.012 6.02602L107.012 6.04233L107.02 7.0423L109.02 7.02598L109.012 6.02602ZM105.012 6.05864L103.012 6.07496L103.021 7.07492L105.02 7.05861L105.012 6.05864ZM101.012 6.09127L99.0125 6.10758L99.0207 7.10755L101.021 7.09123L101.012 6.09127ZM97.0126 6.12389L95.0126 6.14021L95.0208 7.14017L97.0207 7.12386L97.0126 6.12389ZM93.0127 6.15652L91.0128 6.17283L91.0209 7.1728L93.0209 7.15649L93.0127 6.15652ZM89.0128 6.18914L87.0129 6.20546L87.021 7.20542L89.021 7.18911L89.0128 6.18914ZM85.0129 6.22177L83.013 6.23808L83.0212 7.23805L85.0211 7.22174L85.0129 6.22177ZM81.0131 6.25439L79.0132 6.27071L79.0213 7.27067L81.0213 7.25436L81.0131 6.25439ZM77.0132 6.28702L75.0133 6.30333L75.0215 7.3033L77.0214 7.28699L77.0132 6.28702ZM73.0134 6.31965L71.0134 6.33596L71.0216 7.33592L73.0215 7.31961L73.0134 6.31965ZM69.0135 6.35227L67.0136 6.36858L67.0217 7.36855L69.0217 7.35224L69.0135 6.35227ZM65.0136 6.3849L63.0137 6.40121L63.0219 7.40118L65.0218 7.38486L65.0136 6.3849ZM61.0138 6.41752L59.0138 6.43383L59.022 7.4338L61.0219 7.41749L61.0138 6.41752ZM57.0139 6.45015L55.0139 6.46646L55.0221 7.46643L57.022 7.45011L57.0139 6.45015ZM53.014 6.48277L51.0141 6.49908L51.0222 7.49905L53.0222 7.48274L53.014 6.48277ZM49.0142 6.5154L47.0142 6.53171L47.0224 7.53168L49.0223 7.51536L49.0142 6.5154ZM45.0143 6.54802L43.0144 6.56434L43.0225 7.5643L45.0225 7.54799L45.0143 6.54802ZM41.0144 6.58065L39.0145 6.59696L39.0227 7.59693L41.0226 7.58061L41.0144 6.58065ZM37.0146 6.61327L35.0146 6.62959L35.0228 7.62955L37.0227 7.61324L37.0146 6.61327ZM33.0147 6.6459L31.0148 6.66221L31.0229 7.66218L33.0229 7.64587L33.0147 6.6459ZM29.0148 6.67852L27.0149 6.69484L27.023 7.6948L29.023 7.67849L29.0148 6.67852ZM25.0149 6.71115L23.015 6.72746L23.0232 7.72743L25.0231 7.71112L25.0149 6.71115ZM21.0151 6.74378L19.0152 6.76009L19.0233 7.76005L21.0232 7.74374L21.0151 6.74378ZM17.0152 6.7764L15.0153 6.79271L15.0235 7.79268L17.0234 7.77637L17.0152 6.7764ZM13.0154 6.80903L11.0154 6.82534L11.0236 7.8253L13.0235 7.80899L13.0154 6.80903ZM9.01549 6.84165L7.01556 6.85796L7.02372 7.85793L9.02365 7.84162L9.01549 6.84165ZM5.01563 6.87428L3.01569 6.89059L3.02385 7.89056L5.02378 7.87424L5.01563 6.87428ZM1.01576 6.9069L0.0157926 6.91506L0.0239489 7.91502L1.02392 7.90687L1.01576 6.9069Z" fill="white"/>
</svg>
